<?xml version="1.0" encoding="UTF-8"?>
<svg width="64" height="64" version="1.1" viewBox="0 0 64.000002 64.000002" xml:space="preserve" xmlns="http://www.w3.org/2000/svg" xmlns:cc="http://creativecommons.org/ns#" xmlns:dc="http://purl.org/dc/elements/1.1/" xmlns:rdf="http://www.w3.org/1999/02/22-rdf-syntax-ns#"><metadata><rdf:RDF><cc:Work rdf:about=""><dc:format>image/svg+xml</dc:format><dc:type rdf:resource="http://purl.org/dc/dcmitype/StillImage"/><dc:title/></cc:Work></rdf:RDF></metadata><g transform="matrix(1.333 0 0 -1.333 0 64)"><g transform="matrix(.004395 0 0 .004395 1.5 1.363)"><path d="m1.024e4 5120c0 2828-2292 5120-5120 5120s-5120-2292-5120-5120c0-2556 1872-4674 4320-5058v3578h-1300v1480h1300v1128c0 1283 764.4 1992 1934 1992 560.2 0 1146-100 1146-100v-1260h-645.6c-636 0-834.4-394.7-834.4-799.6v-960.4h1420l-227-1480h-1193v-3578c2448 384.1 4320 2502 4320 5058" fill="#fff"/></g></g></svg>
